<svg xmlns="http://www.w3.org/2000/svg" width="600" height="800" viewBox="0 0 600 800"><rect width="600" height="800" fill="#e2ff00"/><g fill="#131313" font-family="Arial" font-weight="900" letter-spacing="-14"><text x="22" y="240" font-size="204">OFF</text><text x="20" y="420" font-size="185">GRID</text></g><g fill="none" stroke="#151515" stroke-width="3"><ellipse cx="300" cy="595" rx="70" ry="115" transform="rotate(0 300 595)"/><ellipse cx="300" cy="595" rx="90" ry="115" transform="rotate(12 300 595)"/><ellipse cx="300" cy="595" rx="110" ry="115" transform="rotate(24 300 595)"/><ellipse cx="300" cy="595" rx="130" ry="115" transform="rotate(36 300 595)"/><ellipse cx="300" cy="595" rx="150" ry="115" transform="rotate(48 300 595)"/><ellipse cx="300" cy="595" rx="170" ry="115" transform="rotate(60 300 595)"/><ellipse cx="300" cy="595" rx="190" ry="115" transform="rotate(72 300 595)"/><ellipse cx="300" cy="595" rx="210" ry="115" transform="rotate(84 300 595)"/><ellipse cx="300" cy="595" rx="230" ry="115" transform="rotate(96 300 595)"/></g><text x="30" y="760" font-family="monospace" font-size="14">INDEPENDENT CULTURE / VOL. 01</text></svg>